# xmcd CD database file
#
# Track frame offsets:
#	150
#	16944
#	30462
#	40083
#	56389
#	74620
#	91543
#	107234
#	121328
#	133871
#	143759
#
# Disc length: 2133 seconds
#
# Revision: 0
# Processed by: cddbd v1.5.2PL0 Copyright (c) Steve Scherf et al.
# Submitted via: CDex 1.51
#
DISCID=8d08530b
DTITLE=Sonny Stitt - The Saxophones Of Sonny Stitt
DYEAR=1958
DGENRE=Jazz
TTITLE0=Happy Faces
TTITLE1=Am I Blue?
TTITLE2=I'll Be Seeing You
TTITLE3=When You're Smiling
TTITLE4=In A Little Spanish Town
TTITLE5=Them There Eyes
TTITLE6=Back In Your Own Backyard
TTITLE7=Foot Tapper
TTITLE8=Sometimes I Feel Like A Motherless Child
TTITLE9=Shadow Waltz
TTITLE10=Wind-Up
EXTD=YEAR: 1958
EXTT0=
EXTT1=
EXTT2=
EXTT3=
EXTT4=
EXTT5=
EXTT6=
EXTT7=
EXTT8=
EXTT9=
EXTT10=
PLAYORDER=
